<?xml version="1.0" encoding="UTF-8" standalone="no"?>
<!DOCTYPE svg PUBLIC "-//W3C//DTD SVG 1.1//EN" "http://www.w3.org/Graphics/SVG/1.1/DTD/svg11.dtd">
<!-- Generated by Microsoft Visio, SVG Export Drawing4_final.svg Page-1 -->
<svg xmlns="http://www.w3.org/2000/svg" xmlns:xlink="http://www.w3.org/1999/xlink" xmlns:ev="http://www.w3.org/2001/xml-events"
		width="9.66319in" height="8.06319in" viewBox="0 0 695.75 580.55" xml:space="preserve" color-interpolation-filters="sRGB"
		class="st20">
	<style type="text/css">
	<![CDATA[
		.st1 {fill:#a8d08d;stroke:#0000ff;stroke-width:0.25}
		.st2 {fill:#feffff;font-family:Calibri;font-size:0.666664em}
		.st3 {font-size:1em}
		.st4 {fill:#9cc3e5;stroke:#c8c8c8;stroke-width:0.25}
		.st5 {fill:#f4b183;stroke:#c8c8c8;stroke-width:0.25}
		.st6 {fill:#ffd965;stroke:#c8c8c8;stroke-width:0.25}
		.st7 {marker-end:url(#mrkr4-90);stroke:#a8d08d;stroke-linecap:round;stroke-linejoin:round;stroke-width:1}
		.st8 {fill:#a8d08d;fill-opacity:1;stroke:#a8d08d;stroke-opacity:1;stroke-width:0.28409090909091}
		.st9 {marker-end:url(#mrkr4-96);stroke:#a8d08d;stroke-linecap:round;stroke-linejoin:round;stroke-width:1}
		.st10 {marker-end:url(#mrkr4-107);stroke:#4672c4;stroke-linecap:round;stroke-linejoin:round;stroke-width:1}
		.st11 {fill:#4672c4;fill-opacity:1;stroke:#4672c4;stroke-opacity:1;stroke-width:0.28409090909091}
		.st12 {marker-end:url(#mrkr4-128);stroke:#9cc3e5;stroke-linecap:round;stroke-linejoin:round;stroke-width:1}
		.st13 {fill:#9cc3e5;fill-opacity:1;stroke:#9cc3e5;stroke-opacity:1;stroke-width:0.28409090909091}
		.st14 {marker-end:url(#mrkr4-139);stroke:#4672c4;stroke-linecap:round;stroke-linejoin:round;stroke-width:1}
		.st15 {marker-end:url(#mrkr4-155);stroke:#f4b183;stroke-linecap:round;stroke-linejoin:round;stroke-width:1}
		.st16 {fill:#f4b183;fill-opacity:1;stroke:#f4b183;stroke-opacity:1;stroke-width:0.28409090909091}
		.st17 {marker-end:url(#mrkr4-306);stroke:#ffd965;stroke-linecap:round;stroke-linejoin:round;stroke-width:1}
		.st18 {fill:#ffd965;fill-opacity:1;stroke:#ffd965;stroke-opacity:1;stroke-width:0.28409090909091}
		.st19 {marker-end:url(#mrkr4-342);stroke:#9cc3e5;stroke-linecap:round;stroke-linejoin:round;stroke-width:1}
		.st20 {fill:none;fill-rule:evenodd;font-size:12px;overflow:visible;stroke-linecap:square;stroke-miterlimit:3}
	]]>
	</style>

	<defs id="Markers">
		<g id="lend4">
			<path d="M 2 1 L 0 0 L 2 -1 L 2 1 " style="stroke:none"/>
		</g>
		<marker id="mrkr4-90" class="st8" refX="-7.04" orient="auto" markerUnits="strokeWidth" overflow="visible">
			<use xlink:href="#lend4" transform="scale(-3.52,-3.52) "/>
		</marker>
		<marker id="mrkr4-96" class="st8" refX="-0" orient="auto" markerUnits="strokeWidth" overflow="visible">
			<use xlink:href="#lend4" transform="scale(-3.52,-3.52) "/>
		</marker>
		<marker id="mrkr4-107" class="st11" refX="-7.04" orient="auto" markerUnits="strokeWidth" overflow="visible">
			<use xlink:href="#lend4" transform="scale(-3.52,-3.52) "/>
		</marker>
		<marker id="mrkr4-128" class="st13" refX="-7.04" orient="auto" markerUnits="strokeWidth" overflow="visible">
			<use xlink:href="#lend4" transform="scale(-3.52,-3.52) "/>
		</marker>
		<marker id="mrkr4-139" class="st11" refX="-0" orient="auto" markerUnits="strokeWidth" overflow="visible">
			<use xlink:href="#lend4" transform="scale(-3.52,-3.52) "/>
		</marker>
		<marker id="mrkr4-155" class="st16" refX="-7.04" orient="auto" markerUnits="strokeWidth" overflow="visible">
			<use xlink:href="#lend4" transform="scale(-3.52,-3.52) "/>
		</marker>
		<marker id="mrkr4-306" class="st18" refX="-7.04" orient="auto" markerUnits="strokeWidth" overflow="visible">
			<use xlink:href="#lend4" transform="scale(-3.52,-3.52) "/>
		</marker>
		<marker id="mrkr4-342" class="st13" refX="-0" orient="auto" markerUnits="strokeWidth" overflow="visible">
			<use xlink:href="#lend4" transform="scale(-3.52,-3.52) "/>
		</marker>
	</defs>
	<g>
		<title>Page-1</title>
		<g id="shape1-1" transform="translate(367.281,-526.3)">
			<title>Process</title>
			<desc>Programming</desc>
			<rect x="0" y="526.55" width="72" height="54" class="st1"/>
			<text x="13.94" y="555.95" class="st2">Programming</text>		</g>
		<g id="shape2-4" transform="translate(253.6,-447.55)">
			<title>Process.2</title>
			<desc>Computer Architecture &#38; Operating System</desc>
			<rect x="0" y="526.55" width="72" height="54" class="st1"/>
			<text x="19.63" y="546.35" class="st2">Computer <tspan x="12.1" dy="1.2em" class="st3">Architecture &#38; </tspan><tspan
						x="7.06" dy="1.2em" class="st3">Operating System</tspan></text>		</g>
		<g id="shape3-9" transform="translate(367.45,-447.55)">
			<title>Process.3</title>
			<desc>Data Structure &#38; Algorithm</desc>
			<rect x="0" y="526.55" width="72" height="54" class="st1"/>
			<text x="8.64" y="551.15" class="st2">Data Structure &#38; <tspan x="19.83" dy="1.2em" class="st3">Algorithm</tspan></text>		</g>
		<g id="shape4-13" transform="translate(486.25,-445.3)">
			<title>Process.4</title>
			<desc>Probability &#38; Linear Algebra &#38; Statistics</desc>
			<rect x="0" y="526.55" width="72" height="54" class="st1"/>
			<text x="3.87" y="551.15" class="st2">Probability &#38; Linear <tspan x="4.52" dy="1.2em" class="st3">Algebra &#38; Statistics</tspan></text>		</g>
		<g id="shape5-17" transform="translate(504.25,-344.05)">
			<title>Process.5</title>
			<desc>Data Science &#38; Data Mining</desc>
			<rect x="0" y="526.55" width="72" height="54" class="st4"/>
			<text x="3.07" y="551.15" class="st2">Data Science &#38; Data <tspan x="24.66" dy="1.2em" class="st3">Mining</tspan></text>		</g>
		<g id="shape6-21" transform="translate(261.25,-359.8)">
			<title>Process.6</title>
			<desc>Machine Learning</desc>
			<rect x="0" y="526.55" width="72" height="54" class="st4"/>
			<text x="6.97" y="555.95" class="st2">Machine Learning</text>		</g>
		<g id="shape7-24" transform="translate(387.25,-346.3)">
			<title>Process.7</title>
			<desc>Artificial Intelligence</desc>
			<rect x="0" y="526.55" width="72" height="54" class="st4"/>
			<text x="2.7" y="555.95" class="st2">Artificial Intelligence</text>		</g>
		<g id="shape8-27" transform="translate(448,-287.8)">
			<title>Process.8</title>
			<desc>Parallel Computing &#38; Parallel Algorithm</desc>
			<rect x="0" y="526.55" width="72" height="54" class="st5"/>
			<text x="5.18" y="551.15" class="st2">Parallel Computing <tspan x="3.25" dy="1.2em" class="st3">&#38; Parallel Algorithm</tspan></text>		</g>
		<g id="shape9-31" transform="translate(529,-200.05)">
			<title>Process.9</title>
			<desc>Data Visualization</desc>
			<rect x="0" y="526.55" width="72" height="54" class="st5"/>
			<text x="6.89" y="555.95" class="st2">Data Visualization</text>		</g>
		<g id="shape10-34" transform="translate(623.5,-200.05)">
			<title>Process.10</title>
			<desc>Big Data Analysis and Processing</desc>
			<rect x="0" y="526.55" width="72" height="54" class="st5"/>
			<text x="8.47" y="551.15" class="st2">Big Data Analysis <tspan x="11.69" dy="1.2em" class="st3">and Processing</tspan></text>		</g>
		<g id="shape11-38" transform="translate(0.25,-197.8)">
			<title>Process.11</title>
			<desc>Deep Learning &#38; Neural Network</desc>
			<rect x="0" y="526.55" width="72" height="54" class="st5"/>
			<text x="8.93" y="551.15" class="st2">Deep Learning &#38; <tspan x="10.1" dy="1.2em" class="st3">Neural Network</tspan></text>		</g>
		<g id="shape12-42" transform="translate(153.025,-200.05)">
			<title>Process.12</title>
			<desc>Reinforcement Learning</desc>
			<rect x="0" y="526.55" width="72" height="54" class="st5"/>
			<text x="11.79" y="551.15" class="st2">Reinforcement <tspan x="22.01" dy="1.2em" class="st3">Learning</tspan></text>		</g>
		<g id="shape13-46" transform="translate(429.775,-200.05)">
			<title>Process.13</title>
			<desc>Graphical Model &#38; Bayesian &#38; Probability Modeling</desc>
			<rect x="0" y="526.55" width="72" height="54" class="st5"/>
			<text x="5.44" y="546.35" class="st2">Graphical Model &#38; <tspan x="17.97" dy="1.2em" class="st3">Bayesian &#38; </tspan><tspan
						x="2.06" dy="1.2em" class="st3">Probability Modeling</tspan></text>		</g>
		<g id="shape14-51" transform="translate(481.75,-26.8)">
			<title>Process.14</title>
			<desc>Computer Vision</desc>
			<rect x="0" y="526.55" width="72" height="54" class="st6"/>
			<text x="8.85" y="555.95" class="st2">Computer Vision</text>		</g>
		<g id="shape15-54" transform="translate(376,-31.3)">
			<title>Process.15</title>
			<desc>Speech Recognition &#38; Information Retrieval &#38; Text Mining</desc>
			<rect x="0" y="526.55" width="72" height="54" class="st6"/>
			<text x="4.05" y="541.55" class="st2">Speech Recognition <tspan x="12.95" dy="1.2em" class="st3">&#38; </tspan>Information <tspan
						x="10.01" dy="1.2em" class="st3">Retrieval</tspan> &#38; Text <tspan x="24.66" dy="1.2em" class="st3">Mining</tspan></text>		</g>
		<g id="shape16-60" transform="translate(319.075,-269.8)">
			<title>Process.16</title>
			<desc>Intelligence Agent</desc>
			<rect x="0" y="526.55" width="72" height="54" class="st5"/>
			<text x="6.62" y="555.95" class="st2">Intelligence Agent</text>		</g>
		<g id="shape18-63" transform="translate(291.4,-179.8)">
			<title>Process.18</title>
			<desc>Evolution Computing &#38; Fuzzy Logic</desc>
			<rect x="0" y="526.55" width="72" height="54" class="st5"/>
			<text x="20.64" y="546.35" class="st2">Evolution <tspan x="4.67" dy="1.2em" class="st3">Computing</tspan> &#38; Fuzzy <tspan
						x="27.72" dy="1.2em" class="st3">Logic</tspan></text>		</g>
		<g id="shape19-68" transform="translate(261.25,-11.05)">
			<title>Process.19</title>
			<desc>Cloud System &#38; Cloud Computing</desc>
			<rect x="0" y="526.55" width="72" height="54" class="st6"/>
			<text x="10.36" y="551.15" class="st2">Cloud System &#38; <tspan x="7.85" dy="1.2em" class="st3">Cloud Computing</tspan></text>		</g>
		<g id="shape20-72" transform="translate(592,-26.8)">
			<title>Process.20</title>
			<desc>Bioinformatics &#38; Precise Medicine &#38; Fintech &#38; Manufacturing &#38;...</desc>
			<rect x="0" y="526.55" width="72" height="54" class="st6"/>
			<text x="8.8" y="536.75" class="st2">Bioinformatics &#38; <tspan x="4.72" dy="1.2em" class="st3">Precise Medicine</tspan> &#38; <tspan
						x="20.39" dy="1.2em" class="st3">Fintech</tspan> &#38; <tspan x="8.26" dy="1.2em" class="st3">Manufacturing</tspan> &#38; <tspan
						x="11.61" dy="1.2em" class="st3">Social Network</tspan></text>		</g>
		<g id="shape21-79" transform="translate(0.25,-47.05)">
			<title>Process.21</title>
			<desc>Computer Games</desc>
			<rect x="0" y="526.55" width="72" height="54" class="st6"/>
			<text x="7.54" y="555.95" class="st2">Computer Games</text>		</g>
		<g id="shape22-82" transform="translate(135.25,-47.05)">
			<title>Process.22</title>
			<desc>Robotics</desc>
			<rect x="0" y="526.55" width="72" height="54" class="st6"/>
			<text x="21.99" y="555.95" class="st2">Robotics</text>		</g>
		<g id="shape27-85" transform="translate(394.366,-526.3)">
			<title>Dynamic connector</title>
			<path d="M8.92 580.55 L9.04 598.26" class="st7"/>
		</g>
		<g id="shape28-91" transform="translate(325.6,-474.55)">
			<title>Dynamic connector.28</title>
			<path d="M0 580.55 L18 580.55 L18 722.3 L26.47 722.3 A3 3 0 0 1 32.48 722.3 L74.48 722.3 L74.48 740.3 L110.4 740.3 A3
						 3 0 0 1 116.4 740.3 L122.4 740.3" class="st9"/>
		</g>
		<g id="shape30-97" transform="translate(439.45,-474.55)">
			<title>Dynamic connector.30</title>
			<path d="M0 580.55 L28.8 580.55 L28.8 695.3 L44.55 695.3 L44.55 706.26" class="st7"/>
		</g>
		<g id="shape31-102" transform="translate(522.25,-445.3)">
			<title>Dynamic connector.31</title>
			<path d="M0 580.55 L0 598.55 L18 598.55 L18 620.76" class="st10"/>
		</g>
		<g id="shape33-108" transform="translate(522.25,-445.3)">
			<title>Dynamic connector.33</title>
			<path d="M0 580.55 L0 598.55 L18 598.55 L18 620.76" class="st10"/>
		</g>
		<g id="shape34-113" transform="translate(522.25,-445.3)">
			<title>Dynamic connector.34</title>
			<path d="M0 580.55 L0 598.55 L18 598.55 L18 620.76" class="st7"/>
		</g>
		<g id="shape35-118" transform="translate(540.25,-344.05)">
			<title>Dynamic connector.35</title>
			<path d="M0 580.55 L0 598.55 L54 598.55 L54 553.55 L43.04 553.55" class="st7"/>
		</g>
		<g id="shape36-123" transform="translate(540.25,-344.05)">
			<title>Dynamic connector.36</title>
			<path d="M0 580.55 L0 598.55 L24.75 598.55 L24.75 663.51" class="st12"/>
		</g>
		<g id="shape37-129" transform="translate(540.25,-344.05)">
			<title>Dynamic connector.37</title>
			<path d="M0 580.55 L0 652.55 L21.75 652.55 A3 3 0 0 1 27.75 652.55 L119.25 652.55 L119.25 663.51" class="st10"/>
		</g>
		<g id="shape38-134" transform="translate(504.25,-363.175)">
			<title>Dynamic connector.38</title>
			<path d="M0 572.68 L-33 571.02 A3 3 -180 0 0 -39 570.73 L-45 570.42" class="st14"/>
		</g>
		<g id="shape39-140" transform="translate(504.25,-363.175)">
			<title>Dynamic connector.39</title>
			<path d="M0 572.68 L-33 571.02 A3 3 -180 0 0 -39 570.73 L-45 570.42" class="st14"/>
		</g>
		<g id="shape40-145" transform="translate(540.25,-344.05)">
			<title>Dynamic connector.40</title>
			<path d="M0 580.55 L0 652.55 L-26.25 652.55 A3 3 -180 0 0 -32.25 652.55 L-53.25 652.55 A3 3 -180 0 0 -59.25 652.55 L-74.48
						 652.55 L-74.48 663.51" class="st12"/>
		</g>
		<g id="shape41-150" transform="translate(297.25,-359.8)">
			<title>Dynamic connector.41</title>
			<path d="M0 580.55 L0 603.05 L43.35 603.05 A3 3 0 0 1 49.35 603.05 L54.82 603.05 A3 3 0 0 1 60.82 603.05 L123 603.05
						 A3 3 0 0 1 129 603.05 L141.75 603.05 L141.75 661.55 L183.75 661.55 A3 3 0 0 1 189.75 661.55 L213.75 661.55
						 L213.75 713.3 L224.71 713.3" class="st15"/>
		</g>
		<g id="shape42-156" transform="translate(297.25,-414.925)">
			<title>Dynamic connector.42</title>
			<path d="M0 581.67 L0 563.67 L43.35 563.67 A3 3 0 0 1 49.35 563.67 L157.2 563.67 A3 3 0 0 1 163.2 563.67 L168 563.67
						 A5.25 5.25 0 1 1 178.5 563.67 L222 563.67 A3 3 0 0 1 228 563.67 L243 563.67 L243 590.39" class="st12"/>
		</g>
		<g id="shape43-161" transform="translate(261.25,-386.8)">
			<title>Dynamic connector.43</title>
			<path d="M0 580.55 L-225 580.55 L-225 708.51" class="st10"/>
		</g>
		<g id="shape44-166" transform="translate(261.25,-386.8)">
			<title>Dynamic connector.44</title>
			<path d="M0 580.55 L-18 580.55 L-18 740.3 L-29.19 740.3" class="st12"/>
		</g>
		<g id="shape45-171" transform="translate(297.25,-359.8)">
			<title>Dynamic connector.45</title>
			<path d="M0 580.55 L0 603.05 L43.35 603.05 A3 3 0 0 1 49.35 603.05 L54.82 603.05 A3 3 0 0 1 60.82 603.05 L123 603.05
						 A3 3 0 0 1 129 603.05 L141.75 603.05 L141.75 661.55 L168.52 661.55 L168.52 679.26" class="st12"/>
		</g>
		<g id="shape46-176" transform="translate(261.25,-386.8)">
			<title>Dynamic connector.46</title>
			<path d="M0 580.55 L-18 580.55 L-18 893.3 L-46.96 893.3" class="st12"/>
		</g>
		<g id="shape47-181" transform="translate(423.25,-346.3)">
			<title>Dynamic connector.47</title>
			<path d="M0 580.55 L0 598.55 L-20.18 598.55 A3 3 -180 0 0 -26.18 598.55 L-65.18 598.55 A3 3 -180 0 0 -71.18 598.55 L-168.23
						 598.55 A3 3 -180 0 0 -174.23 598.55 L-177 598.55 A3 3 -180 0 0 -183 598.55 L-387 598.55 L-387 668.01"
					class="st12"/>
		</g>
		<g id="shape48-186" transform="translate(387.25,-373.3)">
			<title>Dynamic connector.48</title>
			<path d="M0 580.55 L-27 580.55 L-27 603.05 L-29.18 603.05 A3 3 -180 0 0 -35.18 603.05 L-40.65 603.05 A3 3 -180 0 0 -46.65
						 603.05 L-87 603.05 A3 3 -180 0 0 -93 603.05 L-135.23 603.05 L-135.23 726.8 L-141 726.8 A3 3 -180 0 0 -147
						 726.8 L-155.19 726.8" class="st12"/>
		</g>
		<g id="shape49-191" transform="translate(387.25,-373.3)">
			<title>Dynamic connector.49</title>
			<path d="M0 580.55 L-32.18 580.55 L-32.18 623.01" class="st12"/>
		</g>
		<g id="shape50-196" transform="translate(484,-287.8)">
			<title>Dynamic connector.50</title>
			<path d="M0 580.55 L0 605.3 L-15.23 605.3 A3 3 -180 0 0 -21.23 605.3 L-63.23 605.3 L-63.23 774.05 L-69 774.05 A3 3 -180
						 0 0 -75 774.05 L-123 774.05 A3 3 -180 0 0 -129 774.05 L-186.75 774.05 L-186.75 796.26" class="st15"/>
		</g>
		<g id="shape51-201" transform="translate(565,-200.05)">
			<title>Dynamic connector.51</title>
			<path d="M0 580.55 L0 677.3 L-44.25 677.3 A3 3 -180 0 0 -50.25 677.3 L-141.23 677.3 A3 3 -180 0 0 -147.23 677.3 L-153
						 677.3 L-153 688.26" class="st15"/>
		</g>
		<g id="shape52-206" transform="translate(601,-227.05)">
			<title>Dynamic connector.52</title>
			<path d="M0 580.55 L9 580.55 L9 717.8 L27 717.8 L27 719.76" class="st10"/>
		</g>
		<g id="shape53-211" transform="translate(623.5,-227.05)">
			<title>Dynamic connector.53</title>
			<path d="M0 580.55 L-4.5 580.55 L-4.5 704.3 L-10.5 704.3 A3 3 -180 0 0 -16.5 704.3 L-46.5 704.3 A3 3 -180 0 0 -52.5 704.3
						 L-102.75 704.3 A3 3 -180 0 0 -108.75 704.3 L-199.73 704.3 A3 3 -180 0 0 -205.73 704.3 L-211.5 704.3 L-211.5
						 715.26" class="st15"/>
		</g>
		<g id="shape54-216" transform="translate(659.5,-200.05)">
			<title>Dynamic connector.54</title>
			<path d="M0 580.55 L0 598.55 L-31.5 598.55 L-31.5 692.76" class="st15"/>
		</g>
		<g id="shape56-221" transform="translate(72.25,-224.8)">
			<title>Dynamic connector.56</title>
			<path d="M0 580.55 L33 580.55 A3 3 0 1 1 39 580.55 L71.77 580.55 L71.77 634.55 L96 634.55 A3 3 0 0 1 102 634.55 L113.77
						 634.55 A3 3 0 0 1 119.77 634.55 L168 634.55 A3 3 0 0 1 174 634.55 L177 634.55 A3 3 0 0 1 183 634.55 L198.15
						 634.55 A3 3 0 0 1 204.15 634.55 L285.75 634.55 L285.75 747.05 L296.71 747.05" class="st15"/>
		</g>
		<g id="shape57-226" transform="translate(72.25,-224.8)">
			<title>Dynamic connector.57</title>
			<path d="M0 580.55 L33 580.55 A3 3 0 1 1 39 580.55 L71.77 580.55 L71.77 634.55 L96 634.55 A3 3 0 0 1 102 634.55 L113.77
						 634.55 A3 3 0 0 1 119.77 634.55 L168 634.55 A3 3 0 0 1 174 634.55 L177 634.55 A3 3 0 0 1 183 634.55 L198.15
						 634.55 A3 3 0 0 1 204.15 634.55 L336.75 634.55 A3 3 0 0 1 342.75 634.55 L345.52 634.55 A3 3 0 0 1 351.52
						 634.55 L442.5 634.55 A3 3 0 0 1 448.5 634.55 L489.75 634.55 A3 3 0 0 1 495.75 634.55 L501.75 634.55 L501.75
						 751.55 L512.71 751.55" class="st15"/>
		</g>
		<g id="shape58-231" transform="translate(27.25,-197.8)">
			<title>Dynamic connector.58</title>
			<path d="M9 580.55 L9 670.26" class="st15"/>
		</g>
		<g id="shape59-236" transform="translate(72.25,-224.8)">
			<title>Dynamic connector.59</title>
			<path d="M0 580.55 L27 580.55 L27 731.3 L55.96 731.3" class="st15"/>
		</g>
		<g id="shape60-241" transform="translate(189.025,-200.05)">
			<title>Dynamic connector.60</title>
			<path d="M0 580.55 L0 670.55 L51.23 670.55 A3 3 0 0 1 57.23 670.55 L60.22 670.55 A3 3 0 0 1 66.23 670.55 L81.37 670.55
						 A3 3 0 0 1 87.38 670.55 L108.22 670.55 L108.22 708.51" class="st15"/>
		</g>
		<g id="shape61-246" transform="translate(189.025,-200.05)">
			<title>Dynamic connector.61</title>
			<path d="M0 580.55 L0 618.8 L51.23 618.8 A3 3 0 0 1 57.23 618.8 L60.22 618.8 A3 3 0 0 1 66.23 618.8 L81.37 618.8 A3 3
						 0 0 1 87.38 618.8 L168.97 618.8 L168.97 722.3 L179.93 722.3" class="st15"/>
		</g>
		<g id="shape62-251" transform="translate(153.025,-227.05)">
			<title>Dynamic connector.62</title>
			<path d="M0 580.55 L-44.78 580.55 L-44.78 733.55 L-73.74 733.55" class="st15"/>
		</g>
		<g id="shape63-256" transform="translate(189.137,-200.05)">
			<title>Dynamic connector.63</title>
			<path d="M-0.11 580.55 L-0.11 598.55 L-17.89 598.55 L-17.89 672.51" class="st15"/>
		</g>
		<g id="shape64-261" transform="translate(429.775,-227.05)">
			<title>Dynamic connector.64</title>
			<path d="M0 580.55 L-6 580.55 A3 3 -180 0 0 -12 580.55 L-57.37 580.55 L-57.37 544.55 L-71.7 544.55 A3 3 -180 0 0 -77.7
						 544.55 L-174.75 544.55 A3 3 -180 0 0 -180.75 544.55 L-183.52 544.55 A3 3 -180 0 0 -189.52 544.55 L-318.52
						 544.55 A3 3 -180 0 0 -324.52 544.55 L-393.53 544.55 L-393.53 548.76" class="st15"/>
		</g>
		<g id="shape65-266" transform="translate(429.775,-218.05)">
			<title>Dynamic connector.65</title>
			<path d="M0 571.55 L-6 571.55 A3 3 -180 0 0 -12 571.55 L-57.37 571.55 L-57.37 555.8 L-99.37 555.8 A3 3 -180 0 0 -105.37
						 555.8 L-177.75 555.8 L-177.75 571.55 L-183.52 571.55 A3 3 -180 0 0 -189.52 571.55 L-197.71 571.55"
					class="st15"/>
		</g>
		<g id="shape66-271" transform="translate(465.775,-200.05)">
			<title>Dynamic connector.66</title>
			<path d="M0 580.55 L0 589.55 L51.98 589.55 L51.98 692.76" class="st15"/>
		</g>
		<g id="shape67-276" transform="translate(501.775,-218.05)">
			<title>Dynamic connector.67</title>
			<path d="M0 571.55 L20.19 571.55" class="st15"/>
		</g>
		<g id="shape68-281" transform="translate(319.075,-296.8)">
			<title>Dynamic connector.68</title>
			<path d="M0 580.55 L-64.05 580.55 A3 3 -180 0 0 -70.05 580.55 L-72.82 580.55 A3 3 -180 0 0 -78.82 580.55 L-210.83 580.55
						 L-210.83 803.3 L-239.79 803.3" class="st15"/>
		</g>
		<g id="shape69-286" transform="translate(355.075,-269.8)">
			<title>Dynamic connector.69</title>
			<path d="M0 580.55 L0 598.55 L-27.68 598.55 L-27.68 609.51" class="st15"/>
		</g>
		<g id="shape70-291" transform="translate(363.4,-206.8)">
			<title>Dynamic connector.70</title>
			<path d="M0 580.55 L48.6 580.55 L48.6 695.01" class="st15"/>
		</g>
		<g id="shape71-296" transform="translate(291.4,-206.8)">
			<title>Dynamic connector.71</title>
			<path d="M0 580.55 L-18 580.55 L-18 713.3 L-36.15 713.3 A3 3 -180 0 0 -42.15 713.3 L-77.11 713.3" class="st10"/>
		</g>
		<g id="shape72-301" transform="translate(261.25,-38.05)">
			<title>Dynamic connector.72</title>
			<path d="M0 580.55 L-9 580.55 L-9 391.55 L-15 391.55 A3 3 -180 0 0 -21 391.55 L-29.19 391.55" class="st17"/>
		</g>
		<g id="shape74-307" transform="translate(553.75,-44.8)">
			<title>Dynamic connector.74</title>
			<path d="M0 571.55 L31.21 571.55" class="st17"/>
		</g>
		<g id="shape75-312" transform="translate(448,-65.05)">
			<title>Dynamic connector.75</title>
			<path d="M0 587.3 L9 587.3 L9 591.8 L26.71 591.8" class="st17"/>
		</g>
		<g id="shape76-317" transform="translate(291.4,-206.8)">
			<title>Dynamic connector.76</title>
			<path d="M0 580.55 L-18 580.55 L-18 713.3 L-36.15 713.3 A3 3 -180 0 0 -42.15 713.3 L-77.11 713.3" class="st15"/>
		</g>
		<g id="shape77-322" transform="translate(601,-227.05)">
			<title>Dynamic connector.77</title>
			<path d="M0 580.55 L9 580.55 L9 717.8 L27 717.8 L27 719.76" class="st15"/>
		</g>
		<g id="shape78-327" transform="translate(387.25,-371.05)">
			<title>Dynamic connector.78</title>
			<path d="M0 578.3 L-18 578.3 L-18 564.8 L-40.65 564.8 A3 3 -180 0 0 -46.65 564.8 L-46.96 564.8" class="st10"/>
		</g>
		<g id="shape79-332" transform="translate(261.25,-386.8)">
			<title>Dynamic connector.79</title>
			<path d="M0 580.55 L-225 580.55 L-225 708.51" class="st12"/>
		</g>
		<g id="shape80-337" transform="translate(504.25,-363.175)">
			<title>Dynamic connector.80</title>
			<path d="M0 572.68 L-33 571.02 A3 3 -180 0 0 -39 570.73 L-45 570.42" class="st19"/>
		</g>
		<g id="shape83-343" transform="translate(333.25,-41.425)">
			<title>Dynamic connector.83</title>
			<path d="M0 583.92 L18 583.92 L18 613.17 L184.5 613.17 L184.5 602.21" class="st17"/>
		</g>
		<g id="shape88-348" transform="translate(540.25,-344.05)">
			<title>Dynamic connector.88</title>
			<path d="M0 580.55 L0 652.55 L21.75 652.55 A3 3 0 0 1 27.75 652.55 L119.25 652.55 L119.25 663.51" class="st12"/>
		</g>
		<g id="shape89-353" transform="translate(387.25,-371.05)">
			<title>Dynamic connector.89</title>
			<path d="M0 578.3 L-18 578.3 L-18 564.8 L-40.65 564.8 A3 3 -180 0 0 -46.65 564.8 L-46.96 564.8" class="st12"/>
		</g>
		<g id="shape90-358" transform="translate(261.25,-386.8)">
			<title>Dynamic connector.90</title>
			<path d="M0 580.55 L-18 580.55 L-18 884.3 L-12 884.3 A3 3 0 0 1 -6 884.3 L9.15 884.3 A3 3 0 0 1 15.15 884.3 L36 884.3
						 L36 895.26" class="st12"/>
		</g>
		<g id="shape100-363" transform="translate(540.25,-344.05)">
			<title>Dynamic connector.100</title>
			<path d="M0 580.55 L0 609.8 L-13.21 609.8" class="st12"/>
		</g>
		<g id="shape101-368" transform="translate(439.45,-474.55)">
			<title>Dynamic connector.101</title>
			<path d="M0 580.55 L18 580.55 L18 639.05 L25.8 639.05 A5.25 5.25 0 1 1 36.3 639.05 L100.8 639.05 L100.8 650.01"
					class="st7"/>
		</g>
		<g id="shape102-373" transform="translate(486.25,-472.3)">
			<title>Dynamic connector.102</title>
			<path d="M0 580.55 L-13.5 580.55 L-13.5 679.55 L-15 679.55 A3 3 -180 0 0 -21 679.55 L-27 679.55" class="st9"/>
		</g>
	</g>
</svg>
