<?xml version="1.0" encoding="UTF-8" standalone="no"?>
<!DOCTYPE svg PUBLIC "-//W3C//DTD SVG 1.1//EN" "http://www.w3.org/Graphics/SVG/1.1/DTD/svg11.dtd">
<!-- Generated by Microsoft Visio, SVG Export Drawing5_final.svg Page-1 -->
<svg xmlns="http://www.w3.org/2000/svg" xmlns:xlink="http://www.w3.org/1999/xlink" xmlns:ev="http://www.w3.org/2001/xml-events"
		width="11in" height="8.5in" viewBox="0 0 792 612" xml:space="preserve" color-interpolation-filters="sRGB" class="st20">
	<style type="text/css">
	<![CDATA[
		.st1 {fill:#a8d08d;stroke:#0000ff;stroke-width:0.25}
		.st2 {fill:#feffff;font-family:Calibri;font-size:0.666664em}
		.st3 {font-size:1em}
		.st4 {fill:#9cc3e5;stroke:#c8c8c8;stroke-width:0.25}
		.st5 {fill:#f4b183;stroke:#c8c8c8;stroke-width:0.25}
		.st6 {fill:#d78098;stroke:#c8c8c8;stroke-width:0.25}
		.st7 {marker-end:url(#mrkr4-90);stroke:#a8d08d;stroke-linecap:round;stroke-linejoin:round;stroke-width:1}
		.st8 {fill:#a8d08d;fill-opacity:1;stroke:#a8d08d;stroke-opacity:1;stroke-width:0.28409090909091}
		.st9 {marker-end:url(#mrkr4-96);stroke:#a8d08d;stroke-linecap:round;stroke-linejoin:round;stroke-width:1}
		.st10 {marker-end:url(#mrkr4-107);stroke:#4672c4;stroke-linecap:round;stroke-linejoin:round;stroke-width:1}
		.st11 {fill:#4672c4;fill-opacity:1;stroke:#4672c4;stroke-opacity:1;stroke-width:0.28409090909091}
		.st12 {marker-end:url(#mrkr4-128);stroke:#9cc3e5;stroke-linecap:round;stroke-linejoin:round;stroke-width:1}
		.st13 {fill:#9cc3e5;fill-opacity:1;stroke:#9cc3e5;stroke-opacity:1;stroke-width:0.28409090909091}
		.st14 {marker-end:url(#mrkr4-139);stroke:#4672c4;stroke-linecap:round;stroke-linejoin:round;stroke-width:1}
		.st15 {marker-end:url(#mrkr4-155);stroke:#f4b183;stroke-linecap:round;stroke-linejoin:round;stroke-width:1}
		.st16 {fill:#f4b183;fill-opacity:1;stroke:#f4b183;stroke-opacity:1;stroke-width:0.28409090909091}
		.st17 {marker-end:url(#mrkr4-306);stroke:#d78098;stroke-linecap:round;stroke-linejoin:round;stroke-width:1}
		.st18 {fill:#d78098;fill-opacity:1;stroke:#d78098;stroke-opacity:1;stroke-width:0.28409090909091}
		.st19 {marker-end:url(#mrkr4-342);stroke:#9cc3e5;stroke-linecap:round;stroke-linejoin:round;stroke-width:1}
		.st20 {fill:none;fill-rule:evenodd;font-size:12px;overflow:visible;stroke-linecap:square;stroke-miterlimit:3}
	]]>
	</style>

	<defs id="Markers">
		<g id="lend4">
			<path d="M 2 1 L 0 0 L 2 -1 L 2 1 " style="stroke:none"/>
		</g>
		<marker id="mrkr4-90" class="st8" refX="-7.04" orient="auto" markerUnits="strokeWidth" overflow="visible">
			<use xlink:href="#lend4" transform="scale(-3.52,-3.52) "/>
		</marker>
		<marker id="mrkr4-96" class="st8" refX="-0" orient="auto" markerUnits="strokeWidth" overflow="visible">
			<use xlink:href="#lend4" transform="scale(-3.52,-3.52) "/>
		</marker>
		<marker id="mrkr4-107" class="st11" refX="-7.04" orient="auto" markerUnits="strokeWidth" overflow="visible">
			<use xlink:href="#lend4" transform="scale(-3.52,-3.52) "/>
		</marker>
		<marker id="mrkr4-128" class="st13" refX="-7.04" orient="auto" markerUnits="strokeWidth" overflow="visible">
			<use xlink:href="#lend4" transform="scale(-3.52,-3.52) "/>
		</marker>
		<marker id="mrkr4-139" class="st11" refX="-0" orient="auto" markerUnits="strokeWidth" overflow="visible">
			<use xlink:href="#lend4" transform="scale(-3.52,-3.52) "/>
		</marker>
		<marker id="mrkr4-155" class="st16" refX="-7.04" orient="auto" markerUnits="strokeWidth" overflow="visible">
			<use xlink:href="#lend4" transform="scale(-3.52,-3.52) "/>
		</marker>
		<marker id="mrkr4-306" class="st18" refX="-7.04" orient="auto" markerUnits="strokeWidth" overflow="visible">
			<use xlink:href="#lend4" transform="scale(-3.52,-3.52) "/>
		</marker>
		<marker id="mrkr4-342" class="st13" refX="-0" orient="auto" markerUnits="strokeWidth" overflow="visible">
			<use xlink:href="#lend4" transform="scale(-3.52,-3.52) "/>
		</marker>
	</defs>
	<g>
		<title>Page-1</title>
		<g id="shape1-1" transform="translate(415.406,-533.25)">
			<title>Process</title>
			<desc>Programming</desc>
			<rect x="0" y="558" width="72" height="54" class="st1"/>
			<text x="13.94" y="587.4" class="st2">Programming</text>		</g>
		<g id="shape2-4" transform="translate(301.725,-454.5)">
			<title>Process.2</title>
			<desc>Computer Architecture &#38; Operating System</desc>
			<rect x="0" y="558" width="72" height="54" class="st1"/>
			<text x="19.63" y="577.8" class="st2">Computer <tspan x="12.1" dy="1.2em" class="st3">Architecture &#38; </tspan><tspan
						x="7.06" dy="1.2em" class="st3">Operating System</tspan></text>		</g>
		<g id="shape3-9" transform="translate(415.575,-454.5)">
			<title>Process.3</title>
			<desc>Data Structure &#38; Algorithm</desc>
			<rect x="0" y="558" width="72" height="54" class="st1"/>
			<text x="8.64" y="582.6" class="st2">Data Structure &#38; <tspan x="19.83" dy="1.2em" class="st3">Algorithm</tspan></text>		</g>
		<g id="shape4-13" transform="translate(534.375,-452.25)">
			<title>Process.4</title>
			<desc>Probability &#38; Linear Algebra &#38; Statistics</desc>
			<rect x="0" y="558" width="72" height="54" class="st1"/>
			<text x="3.87" y="582.6" class="st2">Probability &#38; Linear <tspan x="4.52" dy="1.2em" class="st3">Algebra &#38; Statistics</tspan></text>		</g>
		<g id="shape5-17" transform="translate(552.375,-351)">
			<title>Process.5</title>
			<desc>Data Science &#38; Data Mining</desc>
			<rect x="0" y="558" width="72" height="54" class="st4"/>
			<text x="3.07" y="582.6" class="st2">Data Science &#38; Data <tspan x="24.66" dy="1.2em" class="st3">Mining</tspan></text>		</g>
		<g id="shape6-21" transform="translate(309.375,-366.75)">
			<title>Process.6</title>
			<desc>Machine Learning</desc>
			<rect x="0" y="558" width="72" height="54" class="st4"/>
			<text x="6.97" y="587.4" class="st2">Machine Learning</text>		</g>
		<g id="shape7-24" transform="translate(435.375,-353.25)">
			<title>Process.7</title>
			<desc>Artificial Intelligence</desc>
			<rect x="0" y="558" width="72" height="54" class="st4"/>
			<text x="2.7" y="587.4" class="st2">Artificial Intelligence</text>		</g>
		<g id="shape8-27" transform="translate(496.125,-294.75)">
			<title>Process.8</title>
			<desc>Parallel Computing &#38; Parallel Algorithm</desc>
			<rect x="0" y="558" width="72" height="54" class="st5"/>
			<text x="5.18" y="582.6" class="st2">Parallel Computing <tspan x="3.25" dy="1.2em" class="st3">&#38; Parallel Algorithm</tspan></text>		</g>
		<g id="shape9-31" transform="translate(577.125,-207)">
			<title>Process.9</title>
			<desc>Data Visualization</desc>
			<rect x="0" y="558" width="72" height="54" class="st5"/>
			<text x="6.89" y="587.4" class="st2">Data Visualization</text>		</g>
		<g id="shape10-34" transform="translate(671.625,-207)">
			<title>Process.10</title>
			<desc>Big Data Analysis and Processing</desc>
			<rect x="0" y="558" width="72" height="54" class="st5"/>
			<text x="8.47" y="582.6" class="st2">Big Data Analysis <tspan x="11.69" dy="1.2em" class="st3">and Processing</tspan></text>		</g>
		<g id="shape11-38" transform="translate(48.375,-204.75)">
			<title>Process.11</title>
			<desc>Deep Learning &#38; Neural Network</desc>
			<rect x="0" y="558" width="72" height="54" class="st5"/>
			<text x="8.93" y="582.6" class="st2">Deep Learning &#38; <tspan x="10.1" dy="1.2em" class="st3">Neural Network</tspan></text>		</g>
		<g id="shape12-42" transform="translate(201.15,-207)">
			<title>Process.12</title>
			<desc>Reinforcement Learning</desc>
			<rect x="0" y="558" width="72" height="54" class="st5"/>
			<text x="11.79" y="582.6" class="st2">Reinforcement <tspan x="22.01" dy="1.2em" class="st3">Learning</tspan></text>		</g>
		<g id="shape13-46" transform="translate(477.9,-207)">
			<title>Process.13</title>
			<desc>Graphical Model &#38; Bayesian &#38; Probability Modeling</desc>
			<rect x="0" y="558" width="72" height="54" class="st5"/>
			<text x="5.44" y="577.8" class="st2">Graphical Model &#38; <tspan x="17.97" dy="1.2em" class="st3">Bayesian &#38; </tspan><tspan
						x="2.06" dy="1.2em" class="st3">Probability Modeling</tspan></text>		</g>
		<g id="shape14-51" transform="translate(529.875,-33.75)">
			<title>Process.14</title>
			<desc>Computer Vision</desc>
			<rect x="0" y="558" width="72" height="54" class="st6"/>
			<text x="8.85" y="587.4" class="st2">Computer Vision</text>		</g>
		<g id="shape15-54" transform="translate(424.125,-38.25)">
			<title>Process.15</title>
			<desc>Speech Recognition &#38; Information Retrieval &#38; Text Mining</desc>
			<rect x="0" y="558" width="72" height="54" class="st6"/>
			<text x="4.05" y="573" class="st2">Speech Recognition <tspan x="12.95" dy="1.2em" class="st3">&#38; </tspan>Information <tspan
						x="10.01" dy="1.2em" class="st3">Retrieval</tspan> &#38; Text <tspan x="24.66" dy="1.2em" class="st3">Mining</tspan></text>		</g>
		<g id="shape16-60" transform="translate(367.2,-276.75)">
			<title>Process.16</title>
			<desc>Intelligence Agent</desc>
			<rect x="0" y="558" width="72" height="54" class="st5"/>
			<text x="6.62" y="587.4" class="st2">Intelligence Agent</text>		</g>
		<g id="shape18-63" transform="translate(339.525,-186.75)">
			<title>Process.18</title>
			<desc>Evolution Computing &#38; Fuzzy Logic</desc>
			<rect x="0" y="558" width="72" height="54" class="st5"/>
			<text x="20.64" y="577.8" class="st2">Evolution <tspan x="4.67" dy="1.2em" class="st3">Computing</tspan> &#38; Fuzzy <tspan
						x="27.72" dy="1.2em" class="st3">Logic</tspan></text>		</g>
		<g id="shape19-68" transform="translate(309.375,-18)">
			<title>Process.19</title>
			<desc>Cloud System &#38; Cloud Computing</desc>
			<rect x="0" y="558" width="72" height="54" class="st6"/>
			<text x="10.36" y="582.6" class="st2">Cloud System &#38; <tspan x="7.85" dy="1.2em" class="st3">Cloud Computing</tspan></text>		</g>
		<g id="shape20-72" transform="translate(640.125,-33.75)">
			<title>Process.20</title>
			<desc>Bioinformatics &#38; Precise Medicine &#38; Fintech &#38; Manufacturing &#38;...</desc>
			<rect x="0" y="558" width="72" height="54" class="st6"/>
			<text x="8.8" y="568.2" class="st2">Bioinformatics &#38; <tspan x="4.72" dy="1.2em" class="st3">Precise Medicine</tspan> &#38; <tspan
						x="20.39" dy="1.2em" class="st3">Fintech</tspan> &#38; <tspan x="8.26" dy="1.2em" class="st3">Manufacturing</tspan> &#38; <tspan
						x="11.61" dy="1.2em" class="st3">Social Network</tspan></text>		</g>
		<g id="shape21-79" transform="translate(48.375,-54)">
			<title>Process.21</title>
			<desc>Computer Games</desc>
			<rect x="0" y="558" width="72" height="54" class="st6"/>
			<text x="7.54" y="587.4" class="st2">Computer Games</text>		</g>
		<g id="shape22-82" transform="translate(183.375,-54)">
			<title>Process.22</title>
			<desc>Robotics</desc>
			<rect x="0" y="558" width="72" height="54" class="st6"/>
			<text x="21.99" y="587.4" class="st2">Robotics</text>		</g>
		<g id="shape27-85" transform="translate(442.491,-533.25)">
			<title>Dynamic connector</title>
			<path d="M8.92 612 L8.92 621 L9.08 621 L9.08 629.71" class="st7"/>
		</g>
		<g id="shape28-91" transform="translate(373.725,-481.5)">
			<title>Dynamic connector.28</title>
			<path d="M0 612 L18 612 L18 753.75 L26.47 753.75 A3 3 0 0 1 32.48 753.75 L74.48 753.75 L74.48 771.75 L110.4 771.75 A3
						 3 0 0 1 116.4 771.75 L122.4 771.75" class="st9"/>
		</g>
		<g id="shape30-97" transform="translate(487.575,-481.5)">
			<title>Dynamic connector.30</title>
			<path d="M0 612 L28.8 612 L28.8 726.75 L44.55 726.75 L44.55 737.71" class="st7"/>
		</g>
		<g id="shape31-102" transform="translate(570.375,-452.25)">
			<title>Dynamic connector.31</title>
			<path d="M0 612 L0 630 L18 630 L18 652.21" class="st10"/>
		</g>
		<g id="shape33-108" transform="translate(570.375,-452.25)">
			<title>Dynamic connector.33</title>
			<path d="M0 612 L0 630 L18 630 L18 652.21" class="st10"/>
		</g>
		<g id="shape34-113" transform="translate(570.375,-452.25)">
			<title>Dynamic connector.34</title>
			<path d="M0 612 L0 630 L18 630 L18 652.21" class="st7"/>
		</g>
		<g id="shape35-118" transform="translate(588.375,-351)">
			<title>Dynamic connector.35</title>
			<path d="M0 612 L0 630 L54 630 L54 585 L43.04 585" class="st7"/>
		</g>
		<g id="shape36-123" transform="translate(588.375,-351)">
			<title>Dynamic connector.36</title>
			<path d="M0 612 L0 630 L24.75 630 L24.75 694.96" class="st12"/>
		</g>
		<g id="shape37-129" transform="translate(588.375,-351)">
			<title>Dynamic connector.37</title>
			<path d="M0 612 L0 684 L21.75 684 A3 3 0 0 1 27.75 684 L119.25 684 L119.25 694.96" class="st10"/>
		</g>
		<g id="shape38-134" transform="translate(552.375,-370.125)">
			<title>Dynamic connector.38</title>
			<path d="M0 604.13 L-18 604.13 L-18 601.87 L-33 601.87 A3 3 -180 0 0 -39 601.87 L-45 601.87" class="st14"/>
		</g>
		<g id="shape39-140" transform="translate(552.375,-370.125)">
			<title>Dynamic connector.39</title>
			<path d="M0 604.13 L-18 604.13 L-18 601.87 L-33 601.87 A3 3 -180 0 0 -39 601.87 L-45 601.87" class="st14"/>
		</g>
		<g id="shape40-145" transform="translate(588.375,-351)">
			<title>Dynamic connector.40</title>
			<path d="M0 612 L0 684 L-26.25 684 A3 3 -180 0 0 -32.25 684 L-53.25 684 A3 3 -180 0 0 -59.25 684 L-74.48 684 L-74.48
						 694.96" class="st12"/>
		</g>
		<g id="shape41-150" transform="translate(345.375,-366.75)">
			<title>Dynamic connector.41</title>
			<path d="M0 612 L0 634.5 L43.35 634.5 A3 3 0 0 1 49.35 634.5 L54.82 634.5 A3 3 0 0 1 60.82 634.5 L123 634.5 A3 3 0 0
						 1 129 634.5 L141.75 634.5 L141.75 693 L183.75 693 A3 3 0 0 1 189.75 693 L213.75 693 L213.75 744.75 L224.71
						 744.75" class="st15"/>
		</g>
		<g id="shape42-156" transform="translate(345.375,-421.875)">
			<title>Dynamic connector.42</title>
			<path d="M0 613.12 L0 595.12 L43.35 595.12 A3 3 0 0 1 49.35 595.12 L157.2 595.12 A3 3 0 0 1 163.2 595.12 L168 595.12
						 A5.25 5.25 0 1 1 178.5 595.12 L222 595.12 A3 3 0 0 1 228 595.12 L243 595.12 L243 621.84" class="st12"/>
		</g>
		<g id="shape43-161" transform="translate(309.375,-393.75)">
			<title>Dynamic connector.43</title>
			<path d="M0 612 L-225 612 L-225 739.96" class="st10"/>
		</g>
		<g id="shape44-166" transform="translate(309.375,-393.75)">
			<title>Dynamic connector.44</title>
			<path d="M0 612 L-18 612 L-18 771.75 L-29.19 771.75" class="st12"/>
		</g>
		<g id="shape45-171" transform="translate(345.375,-366.75)">
			<title>Dynamic connector.45</title>
			<path d="M0 612 L0 634.5 L43.35 634.5 A3 3 0 0 1 49.35 634.5 L54.82 634.5 A3 3 0 0 1 60.82 634.5 L123 634.5 A3 3 0 0
						 1 129 634.5 L141.75 634.5 L141.75 693 L168.52 693 L168.52 710.71" class="st12"/>
		</g>
		<g id="shape46-176" transform="translate(309.375,-393.75)">
			<title>Dynamic connector.46</title>
			<path d="M0 612 L-18 612 L-18 924.75 L-46.96 924.75" class="st12"/>
		</g>
		<g id="shape47-181" transform="translate(471.375,-353.25)">
			<title>Dynamic connector.47</title>
			<path d="M0 612 L0 630 L-20.18 630 A3 3 -180 0 0 -26.18 630 L-65.18 630 A3 3 -180 0 0 -71.18 630 L-168.23 630 A3 3 -180
						 0 0 -174.23 630 L-177 630 A3 3 -180 0 0 -183 630 L-387 630 L-387 699.46" class="st12"/>
		</g>
		<g id="shape48-186" transform="translate(435.375,-380.25)">
			<title>Dynamic connector.48</title>
			<path d="M0 612 L-27 612 L-27 634.5 L-29.18 634.5 A3 3 -180 0 0 -35.18 634.5 L-40.65 634.5 A3 3 -180 0 0 -46.65 634.5
						 L-87 634.5 A3 3 -180 0 0 -93 634.5 L-135.23 634.5 L-135.23 758.25 L-141 758.25 A3 3 -180 0 0 -147 758.25
						 L-155.19 758.25" class="st12"/>
		</g>
		<g id="shape49-191" transform="translate(435.375,-380.25)">
			<title>Dynamic connector.49</title>
			<path d="M0 612 L-32.18 612 L-32.18 654.46" class="st12"/>
		</g>
		<g id="shape50-196" transform="translate(532.125,-294.75)">
			<title>Dynamic connector.50</title>
			<path d="M0 612 L0 636.75 L-15.22 636.75 A3 3 -180 0 0 -21.23 636.75 L-63.22 636.75 L-63.22 805.5 L-69 805.5 A3 3 -180
						 0 0 -75 805.5 L-123 805.5 A3 3 -180 0 0 -129 805.5 L-186.75 805.5 L-186.75 827.71" class="st15"/>
		</g>
		<g id="shape51-201" transform="translate(613.125,-207)">
			<title>Dynamic connector.51</title>
			<path d="M0 612 L0 708.75 L-44.25 708.75 A3 3 -180 0 0 -50.25 708.75 L-141.22 708.75 A3 3 -180 0 0 -147.22 708.75 L-153
						 708.75 L-153 719.71" class="st15"/>
		</g>
		<g id="shape52-206" transform="translate(649.125,-234)">
			<title>Dynamic connector.52</title>
			<path d="M0 612 L9 612 L9 749.25 L27 749.25 L27 751.21" class="st10"/>
		</g>
		<g id="shape53-211" transform="translate(671.625,-234)">
			<title>Dynamic connector.53</title>
			<path d="M0 612 L-4.5 612 L-4.5 735.75 L-10.5 735.75 A3 3 -180 0 0 -16.5 735.75 L-46.5 735.75 A3 3 -180 0 0 -52.5 735.75
						 L-102.75 735.75 A3 3 -180 0 0 -108.75 735.75 L-199.72 735.75 A3 3 -180 0 0 -205.72 735.75 L-211.5 735.75
						 L-211.5 746.71" class="st15"/>
		</g>
		<g id="shape54-216" transform="translate(707.625,-207)">
			<title>Dynamic connector.54</title>
			<path d="M0 612 L0 630 L-31.5 630 L-31.5 724.21" class="st15"/>
		</g>
		<g id="shape56-221" transform="translate(120.375,-231.75)">
			<title>Dynamic connector.56</title>
			<path d="M0 612 L24 612 A3 3 0 1 1 30 612 L71.78 612 L71.78 666 L96 666 A3 3 0 1 1 102 666 L113.78 666 A3 3 0 0 1 119.78
						 666 L168 666 A3 3 0 0 1 174 666 L177 666 A3 3 0 1 1 183 666 L198.15 666 A3 3 0 0 1 204.15 666 L285.75 666
						 L285.75 778.5 L296.71 778.5" class="st15"/>
		</g>
		<g id="shape57-226" transform="translate(120.375,-231.75)">
			<title>Dynamic connector.57</title>
			<path d="M0 612 L24 612 A3 3 0 1 1 30 612 L71.78 612 L71.78 666 L96 666 A3 3 0 1 1 102 666 L113.78 666 A3 3 0 0 1 119.78
						 666 L168 666 A3 3 0 0 1 174 666 L177 666 A3 3 0 1 1 183 666 L198.15 666 A3 3 0 0 1 204.15 666 L336.75 666
						 A3 3 0 0 1 342.75 666 L345.53 666 A3 3 0 0 1 351.53 666 L442.5 666 A3 3 0 0 1 448.5 666 L489.75 666 A3 3
						 0 0 1 495.75 666 L501.75 666 L501.75 783 L512.71 783" class="st15"/>
		</g>
		<g id="shape58-231" transform="translate(75.375,-204.75)">
			<title>Dynamic connector.58</title>
			<path d="M9 612 L9 701.71" class="st15"/>
		</g>
		<g id="shape59-236" transform="translate(120.375,-231.75)">
			<title>Dynamic connector.59</title>
			<path d="M0 612 L18 612 L18 762.75 L55.96 762.75" class="st15"/>
		</g>
		<g id="shape60-241" transform="translate(237.15,-207)">
			<title>Dynamic connector.60</title>
			<path d="M0 612 L0 702 L51.23 702 A3 3 0 0 1 57.23 702 L60.22 702 A3 3 0 0 1 66.22 702 L81.38 702 A3 3 0 1 1 87.38 702
						 L108.22 702 L108.22 739.96" class="st15"/>
		</g>
		<g id="shape61-246" transform="translate(237.15,-207)">
			<title>Dynamic connector.61</title>
			<path d="M0 612 L0 650.25 L51.23 650.25 A3 3 0 0 1 57.23 650.25 L60.22 650.25 A3 3 0 0 1 66.22 650.25 L81.38 650.25 A3
						 3 0 1 1 87.38 650.25 L168.97 650.25 L168.97 753.75 L179.93 753.75" class="st15"/>
		</g>
		<g id="shape62-251" transform="translate(201.15,-234)">
			<title>Dynamic connector.62</title>
			<path d="M0 612 L-53.78 612 L-53.78 765 L-73.74 765" class="st15"/>
		</g>
		<g id="shape63-256" transform="translate(237.263,-207)">
			<title>Dynamic connector.63</title>
			<path d="M-0.11 612 L-0.11 630 L-17.89 630 L-17.89 703.96" class="st15"/>
		</g>
		<g id="shape64-261" transform="translate(477.9,-234)">
			<title>Dynamic connector.64</title>
			<path d="M0 612 L-6 612 A3 3 -180 0 0 -12 612 L-57.37 612 L-57.37 576 L-71.7 576 A3 3 -180 0 0 -77.7 576 L-174.75 576
						 A3 3 -180 0 0 -180.75 576 L-183.52 576 A3 3 -180 0 0 -189.52 576 L-327.52 576 A3 3 -180 0 0 -333.53 576
						 L-393.53 576 L-393.53 580.21" class="st15"/>
		</g>
		<g id="shape65-266" transform="translate(477.9,-225)">
			<title>Dynamic connector.65</title>
			<path d="M0 603 L-6 603 A3 3 -180 0 0 -12 603 L-57.37 603 L-57.37 587.25 L-99.37 587.25 A3 3 -180 0 0 -105.37 587.25
						 L-177.75 587.25 L-177.75 603 L-183.52 603 A3 3 -180 0 0 -189.52 603 L-197.71 603" class="st15"/>
		</g>
		<g id="shape66-271" transform="translate(513.9,-207)">
			<title>Dynamic connector.66</title>
			<path d="M0 612 L0 621 L51.98 621 L51.98 724.21" class="st15"/>
		</g>
		<g id="shape67-276" transform="translate(549.9,-225)">
			<title>Dynamic connector.67</title>
			<path d="M0 603 L20.19 603" class="st15"/>
		</g>
		<g id="shape68-281" transform="translate(367.2,-303.75)">
			<title>Dynamic connector.68</title>
			<path d="M0 612 L-64.05 612 A3 3 -180 0 0 -70.05 612 L-72.82 612 A3 3 -180 1 0 -78.82 612 L-219.83 612 L-219.83 834.75
						 L-239.79 834.75" class="st15"/>
		</g>
		<g id="shape69-286" transform="translate(403.2,-276.75)">
			<title>Dynamic connector.69</title>
			<path d="M0 612 L0 630 L-27.68 630 L-27.68 640.96" class="st15"/>
		</g>
		<g id="shape70-291" transform="translate(411.525,-213.75)">
			<title>Dynamic connector.70</title>
			<path d="M0 612 L48.6 612 L48.6 726.46" class="st15"/>
		</g>
		<g id="shape71-296" transform="translate(339.525,-213.75)">
			<title>Dynamic connector.71</title>
			<path d="M0 612 L-18 612 L-18 744.75 L-36.15 744.75 A3 3 -180 0 0 -42.15 744.75 L-77.11 744.75" class="st10"/>
		</g>
		<g id="shape72-301" transform="translate(309.375,-45)">
			<title>Dynamic connector.72</title>
			<path d="M0 612 L-9 612 L-9 423 L-15 423 A3 3 -180 0 0 -21 423 L-29.18 423" class="st17"/>
		</g>
		<g id="shape74-307" transform="translate(601.875,-51.75)">
			<title>Dynamic connector.74</title>
			<path d="M0 603 L31.21 603" class="st17"/>
		</g>
		<g id="shape75-312" transform="translate(496.125,-72)">
			<title>Dynamic connector.75</title>
			<path d="M0 618.75 L9 618.75 L9 623.25 L26.71 623.25" class="st17"/>
		</g>
		<g id="shape76-317" transform="translate(339.525,-213.75)">
			<title>Dynamic connector.76</title>
			<path d="M0 612 L-18 612 L-18 744.75 L-36.15 744.75 A3 3 -180 0 0 -42.15 744.75 L-77.11 744.75" class="st15"/>
		</g>
		<g id="shape77-322" transform="translate(649.125,-234)">
			<title>Dynamic connector.77</title>
			<path d="M0 612 L9 612 L9 749.25 L27 749.25 L27 751.21" class="st15"/>
		</g>
		<g id="shape78-327" transform="translate(435.375,-378)">
			<title>Dynamic connector.78</title>
			<path d="M0 609.75 L-18 609.75 L-18 596.25 L-40.65 596.25 A3 3 -180 0 0 -46.65 596.25 L-46.96 596.25" class="st10"/>
		</g>
		<g id="shape79-332" transform="translate(309.375,-393.75)">
			<title>Dynamic connector.79</title>
			<path d="M0 612 L-225 612 L-225 739.96" class="st12"/>
		</g>
		<g id="shape80-337" transform="translate(552.375,-370.125)">
			<title>Dynamic connector.80</title>
			<path d="M0 604.13 L-18 604.13 L-18 601.87 L-33 601.87 A3 3 -180 0 0 -39 601.87 L-45 601.87" class="st19"/>
		</g>
		<g id="shape83-343" transform="translate(381.375,-48.375)">
			<title>Dynamic connector.83</title>
			<path d="M0 615.37 L18 615.37 L18 644.62 L184.5 644.62 L184.5 633.66" class="st17"/>
		</g>
		<g id="shape88-348" transform="translate(588.375,-351)">
			<title>Dynamic connector.88</title>
			<path d="M0 612 L0 684 L21.75 684 A3 3 0 0 1 27.75 684 L119.25 684 L119.25 694.96" class="st12"/>
		</g>
		<g id="shape89-353" transform="translate(435.375,-378)">
			<title>Dynamic connector.89</title>
			<path d="M0 609.75 L-18 609.75 L-18 596.25 L-40.65 596.25 A3 3 -180 0 0 -46.65 596.25 L-46.96 596.25" class="st12"/>
		</g>
		<g id="shape90-358" transform="translate(309.375,-393.75)">
			<title>Dynamic connector.90</title>
			<path d="M0 612 L-18 612 L-18 915.75 L-12 915.75 A3 3 0 0 1 -6 915.75 L9.15 915.75 A3 3 0 0 1 15.15 915.75 L36 915.75
						 L36 926.71" class="st12"/>
		</g>
		<g id="shape100-363" transform="translate(588.375,-351)">
			<title>Dynamic connector.100</title>
			<path d="M0 612 L0 641.25 L-13.21 641.25" class="st12"/>
		</g>
		<g id="shape101-368" transform="translate(487.575,-481.5)">
			<title>Dynamic connector.101</title>
			<path d="M0 612 L18 612 L18 670.5 L25.8 670.5 A5.25 5.25 0 1 1 36.3 670.5 L100.8 670.5 L100.8 681.46" class="st7"/>
		</g>
		<g id="shape102-373" transform="translate(534.375,-479.25)">
			<title>Dynamic connector.102</title>
			<path d="M0 612 L-13.5 612 L-13.5 711 L-15 711 A3 3 -180 0 0 -21 711 L-27 711" class="st9"/>
		</g>
		<g id="shape103-378" transform="translate(309.375,-45)">
			<title>Dynamic connector.103</title>
			<path d="M0 612 L-9 612 L-9 576 L-46.96 576" class="st17"/>
		</g>
	</g>
</svg>
